<svg width="328" height="328" viewBox="0 0 328 328" fill="none" xmlns="http://www.w3.org/2000/svg">
<g clip-path="url(#clip0_25_3631)">
<path d="M-29 -20.1001C97.5 -20.1001 223.9 -20.1001 350.5 -20.1001C350.5 99.5999 350.5 219.3 350.5 339.1C224.1 339.1 97.5 339.1 -29 339.1C-29 219.5 -29 99.6999 -29 -20.1001ZM164 -0.100098C115.1 -0.100098 66.2 -0.100098 17.4 -0.100098C5.8 -0.100098 -0.300003 5.9999 -0.300003 17.3999C-0.300003 115.2 -0.300003 213 -0.300003 310.7C-0.300003 322.1 5.9 328.4 17.3 328.4C115.2 328.4 213.1 328.4 310.9 328.4C322.1 328.4 328.3 322.2 328.3 311C328.3 252.6 328.3 194.2 328.3 135.8C328.3 96.2999 328.3 56.7999 328.2 17.2999C328.2 13.9999 327.6 10.3999 326.1 7.59991C323 1.69991 317.5 -0.200104 311 -0.200104C262 -0.100103 213 -0.100098 164 -0.100098Z" fill="white"/>
<path d="M164 -0.100098C213 -0.100098 262 -0.100098 311 -0.100098C317.5 -0.100098 323 1.79992 326.1 7.69992C327.6 10.4999 328.2 14.0999 328.2 17.3999C328.3 56.8999 328.3 96.3999 328.3 135.9C328.3 194.3 328.3 252.7 328.3 311.1C328.3 322.3 322.2 328.5 310.9 328.5C213 328.5 115.1 328.5 17.3002 328.5C5.9002 328.5 -0.299805 322.2 -0.299805 310.8C-0.299805 213 -0.299805 115.2 -0.299805 17.4999C-0.299805 6.09991 5.80019 -9.15527e-05 17.4002 -9.15527e-05C66.2002 -0.100092 115.1 -0.100098 164 -0.100098ZM204.6 212.9C204.4 216.5 203.9 219 204.1 221.4C205.5 246.8 216.3 266.1 240.2 276.9C241.4 277.4 242.4 279 243 280.4C244.9 285 246.5 289.7 248.2 294.3C249.1 296.7 250.7 297.2 253.2 297.2C266.6 297.1 280 297.1 293.3 297.1C294.4 297.1 295.5 297 296.9 296.9C297 295.4 297.1 294 297.1 292.7C297.1 282.4 297.1 272.2 297.1 261.9C297.1 249.4 295.9 247.8 283.7 244.3C282.9 244.1 281.9 244.2 281.2 243.8C280 243.1 278.6 242.3 278.1 241.2C267.6 215.4 246.3 204.3 219.1 203.6C217.6 203.6 216.1 204.1 214.3 204.4C214.9 205.6 215.1 206.2 215.5 206.6C221 212.6 226.5 218.6 232.2 224.4C232.9 225.1 234.9 225 236.1 224.6C243.7 222.1 250.6 223.5 256.1 229.2C261.8 235 263.1 242 260.1 249.6C257.3 256.7 251.7 260.3 244.3 261.2C238.3 262 231.5 258.9 228.5 254.2C238 261.4 248 261.1 254.4 253.3C260.3 246.1 259.5 235.2 252.5 229.4C246.3 224.3 235.3 222.4 226.8 232.9C219.6 226.3 213.5 218.9 204.6 212.9ZM30.8002 30.7999C30.8002 32.6999 30.8002 33.9999 30.8002 35.3999C30.8002 48.4999 31.0002 61.6999 30.7002 74.7999C30.6002 78.4999 31.7002 80.4999 35.1002 81.7999C37.9002 82.8999 41.3002 84.1999 42.8002 86.3999C51.5002 99.0999 61.4002 110.5 73.0002 120.5C82.0002 128.3 91.3002 135.6 102.5 140.2C104.5 141 107 140.6 109.2 140.7C109 138.7 109.3 136.3 108.4 134.7C104.1 127.1 99.5002 119.7 95.0002 112.2C93.8002 110.2 92.5002 109.5 89.9002 110C73.7002 113.1 59.3002 99.8999 61.2002 84.0999C62.9002 70.0999 75.5002 60.8999 89.8002 63.1999C102.5 65.2999 111.2 78.3999 108.4 91.5999C107.9 93.7999 108.3 95.0999 110.2 96.2999C115.9 99.8999 121.4 103.9 127.1 107.4C129.8 109.1 133 110.2 136.1 111.1C139.2 111.9 140.5 110.5 139.6 107.5C138.6 104.3 137.3 101.1 135.7 98.1999C125 79.3999 110.5 63.6999 93.3002 50.6999C86.9002 45.8999 80.5002 41.3999 78.2002 33.0999C78.1002 32.7999 77.9002 32.2999 77.6002 32.0999C76.8002 31.5999 76.0002 30.7999 75.2002 30.7999C60.6002 30.7999 46.0002 30.7999 30.8002 30.7999ZM94.7002 198.9C94.5002 198.6 94.3002 198.2 94.2002 197.9C92.3002 198.4 90.4002 198.6 88.6002 199.3C79.7002 202.9 70.8002 206.6 62.1002 210.5C60.2002 211.4 58.2002 213.4 57.5002 215.3C52.5002 229.6 44.6002 241.9 33.2002 252C31.9002 253.2 31.0002 255.6 31.0002 257.5C30.8002 269.5 30.9002 281.5 30.9002 293.5C30.9002 294.6 31.1002 295.6 31.2002 296.6C31.9002 296.8 32.2002 296.9 32.6002 296.9C45.8002 296.9 59.1002 297 72.3002 296.9C73.6002 296.9 75.2002 296 76.0002 295C85.4002 283.1 97.4002 275 111.7 270.3C112.4 270.1 113.2 269.8 113.7 269.4C114.5 268.8 115.4 268.2 115.8 267.4C120.3 257.2 124.7 247 129 236.8C129.4 235.8 129.3 234.6 129.5 233.5C129.1 233.3 128.8 233.2 128.4 233C126.6 235.1 124.6 237.1 123.1 239.5C118.6 246.3 114.4 253.2 109.9 260C109.2 261.1 108.1 262.3 107 262.6C102 263.9 97.0002 264.8 92.0002 265.9C90.0002 266.3 89.1002 265.8 88.6002 263.7C87.2002 258.1 85.5002 252.7 84.0002 247.1C83.4002 244.9 82.4002 243.8 80.1002 243.3C73.8002 241.9 67.6002 240.1 61.1002 238.5C62.3002 232.8 63.4002 227.3 64.8002 221.9C65.3002 220.2 66.6002 218.4 68.0002 217.4C75.0002 212.7 82.3002 208.2 89.4002 203.6C91.4002 202.1 93.0002 200.4 94.7002 198.9ZM276.6 101.4C282.7 95.9999 289.1 90.4999 295.3 84.6999C296.4 83.6999 296.9 81.5999 296.9 79.9999C297 64.6999 297 49.4999 297 34.1999C297 33.0999 296.8 32.0999 296.8 31.0999C280.8 31.0999 265.2 31.0999 250.5 31.0999C249.1 34.9999 248.5 38.5999 246.7 41.3999C242.1 48.6999 237 55.5999 232.1 62.7999C234.9 64.7999 237.4 66.6999 240.2 68.7999C242.5 65.4999 244.9 62.0999 247.3 58.6999C247.7 63.0999 247.6 67.1999 247.2 71.2999C247 73.3999 247.6 74.4999 249.6 75.1999C254.7 76.9999 258.8 80.3999 261.2 85.2999C262.6 88.0999 264.3 88.2999 266.9 87.6999C270.5 86.8999 274.3 86.3999 277.9 85.6999C278 85.8999 278.1 86.0999 278.1 86.3999C275.1 89.0999 272.1 91.7999 269.2 94.4999C271.8 96.7999 274 98.8999 276.6 101.4ZM274.2 191.8C280.3 195.7 287 197 294.2 195.3C296.2 194.8 297 193.9 297 191.7C296.9 178.6 296.9 165.5 297 152.3C297 149.9 296.1 149 293.9 148.5C287.8 147.2 282 147.8 276.5 150.8C274.8 151.8 273.9 151.3 272.3 150.3C267.3 147.3 262.3 144.1 256.9 142.3C249.4 139.8 241.8 140.9 234.6 144.3C235.6 144.7 236.5 144.7 237.4 144.8C248.1 145.9 257 150.4 263.7 158.8C266 161.7 266 162 264.3 164.7C261.2 159.3 256.6 156.2 250.4 155.9C245.8 155.7 241.2 155.9 236.5 155.9C236.6 156.2 236.7 157.5 237 158.9C235.6 159.5 234.3 160 232.9 160.6C233.7 162.5 234.5 164.2 235.3 165.9C234.1 166.3 233.1 166.7 232.1 167C232.8 168.6 233.5 170 234.1 171.5C232.1 172.6 230.1 173.7 227.8 175C230.4 175.8 232.5 176.5 234.7 177.2C233.8 178.2 233 179.1 232.7 179.5C234.7 182.7 236.5 185.4 238 187.7C241.9 187.6 245.9 187.8 249.8 187.4C252.7 187.1 255.8 186.4 258.3 185C260.9 183.5 262.8 180.9 264.9 178.9C267 181.4 265.9 183.7 264 186.1C259.2 191.9 253.1 195.2 245.8 196.4C240.9 197.2 235.9 197 231.1 197.2C243.2 205.3 257.5 203.5 274.2 191.8ZM31.0002 190.5C37.7002 188.7 44.2002 187 50.7002 185.4C51.8002 185.1 53.2002 185.2 54.2002 185.8C63.7002 191.4 74.1002 193 84.9002 192.3C93.6002 191.7 101.5 188.9 108.4 183.5C109.5 182.7 110 181.2 110.8 180C109.5 179.6 108.2 178.8 106.9 178.7C102.3 178.5 98.7002 180.5 95.9002 184.3C94.8002 185.7 92.7002 186.5 91.0002 187.2C89.5002 187.9 87.7002 188.1 86.1002 188.6C85.6002 186.6 85.6002 186.6 88.9002 186.1C95.1002 185.2 98.1002 181.2 96.1002 175.8C95.4002 173.7 93.5002 172.1 91.7002 169.7C92.2002 162.7 88.8002 157 82.5002 155.2C76.7002 153.5 70.7002 156 67.7002 161.3C64.6002 166.8 65.9002 173.4 70.8002 177.6C76.1002 182.1 82.0002 181.3 90.4002 174.9C91.7002 180.2 84.8002 180.9 85.4002 185.1C76.0002 186.3 63.8002 184.5 60.0002 180.4C63.7002 176.7 64.9002 172.3 65.1002 166.9C65.3002 161.4 63.4002 157.3 60.4002 153.5C60.6002 153.1 60.6002 153 60.7002 152.9C61.0002 152.7 61.3002 152.5 61.7002 152.3C74.9002 146.9 87.9002 147 100.7 153.7C102 154.4 103.4 155.1 104.8 155.2C106.8 155.2 108.8 154.6 110.8 154.3C109.5 152.7 108.5 150.5 106.8 149.5C90.2002 139.3 73.1002 139.1 55.7002 147.5C53.9002 148.4 51.4002 148.9 49.5002 148.4C43.4002 146.9 37.4002 144.8 31.2002 142.9C31.0002 158.9 31.0002 174.9 31.0002 190.5ZM226.1 64.9999C225.2 68.2999 224.8 71.1999 223.6 73.7999C221.5 78.3999 218.5 82.6999 216.5 87.3999C212.1 97.5999 215.8 107.9 225.4 113.3C226 113.6 226.6 114.1 227 114.7C234.2 123.9 245 125.9 254.9 119.6C258.5 117.3 261.9 114.8 265.2 112.2C268.1 110 270.8 107.7 275.3 109.5C273.5 102.4 270.6 97.0999 264.2 94.0999C263.1 93.5999 261.9 92.4999 261.6 91.4999C258.7 82.8999 252.7 77.8999 244 75.9999C243 75.7999 241.8 74.8999 241.3 74.0999C237.5 67.7999 231.6 65.6999 226.1 64.9999ZM180.3 296.7C180.9 291.8 181.4 287.1 181.9 282.4C182.8 275.3 183.9 268.4 186.7 261.4C193 245.7 191.5 230.3 181.4 216.2C180.3 214.7 178.8 213.5 177.3 212C175 215.3 174.8 217.4 177 220.5C185.2 232.1 185.7 244.9 181.9 257.5C178.4 256.6 175.3 254.9 172.4 255.2C169.3 255.5 166.5 257.6 164 258.6C161.1 257.4 158.3 255.3 155.4 255.1C152.4 254.9 149.4 256.5 146 257.5C142.3 244.7 142.7 231.8 151.1 220.2C153.4 217 152.7 214.9 150 211.1C148.7 213 147.6 214.5 146.6 216C135.6 231.7 135.1 248.2 142.8 265.3C143.6 267.1 144.4 269 144.6 270.9C145.7 279.3 146.6 287.8 147.6 296.5C158.4 296.7 169.2 296.7 180.3 296.7ZM178.1 31.0999C168.5 31.0999 159.5 31.0999 150.2 31.0999C150.2 44.0999 150.2 56.8999 150.2 69.5999C150.2 71.1999 150.1 72.7999 149.7 74.3999C145.8 92.6999 141.9 111 138 129.3C137.5 131.6 137.3 133.8 140.1 134.4C143 135 143.9 132.9 144.4 130.5C145.9 123.2 147.7 115.9 149 108.5C150 103 150.8 97.4999 151.2 91.9999C151.9 81.3999 159.4 76.0999 169.4 79.2999C170 79.4999 170.7 79.4999 171.2 79.8999C172.1 80.5999 173.1 81.2999 173.5 82.1999C175.9 86.8999 176.2 92.0999 177 97.2999C178.7 108.5 181.6 119.5 184 130.6C184.5 133 185.3 135.2 188.3 134.5C191.1 133.8 190.8 131.7 190.3 129.4C187.8 118.1 185.6 106.7 183 95.3999C179.6 81.0999 177.3 66.7999 178.1 52.0999C178.4 45.0999 178.1 38.1999 178.1 31.0999ZM89.3002 261.2C97.6002 259.2 105.4 256.6 110.9 249.9C113.8 246.4 114.7 242.1 113.8 237.6C112.4 229.8 108.1 223.9 101.9 219.3C88.3002 209.2 76.6002 212.3 69.9002 227.9C68.5002 231.2 67.5002 234.8 66.3002 238.4C71.9002 239.9 76.5002 241.2 81.3002 242.2C83.5002 242.7 84.4002 243.7 84.9002 245.8C86.3002 250.8 87.8002 255.8 89.3002 261.2ZM84.9002 108.3C96.6002 108.4 106.6 98.7999 106.8 87.1999C107 75.0999 97.5002 65.3999 85.4002 65.2999C73.4002 65.0999 63.4002 74.7999 63.3002 86.5999C63.4002 98.4999 72.9002 108.2 84.9002 108.3ZM152.5 92.3999C152.5 98.8999 157.7 104.1 164.1 104C170.3 103.9 175.6 98.6999 175.6 92.4999C175.6 86.1999 170.3 80.8999 163.9 80.9999C157.5 81.0999 152.4 86.0999 152.5 92.3999ZM248.8 126.1C244.6 125.7 240.8 125.2 237 124.9C236 124.8 234.7 125.1 234 125.7C229.7 129.3 225.5 133 221.4 136.8C219.2 138.9 218.9 141.4 220.9 143.8C222.9 146.3 225.6 146.4 227.9 144.4C234.9 138.4 241.8 132.2 248.8 126.1ZM211.2 93.1999C206 100.8 200.8 108.1 195.8 115.6C193.9 118.4 194.4 121.2 196.9 122.8C199.7 124.7 202.2 123.9 204.1 121.4C207.3 117 210.4 112.4 213.4 107.8C213.9 107.1 214.2 105.9 214.1 105.1C213.3 101.2 212.3 97.3999 211.2 93.1999ZM174.5 241.9C173 237.8 172.2 233.7 170.2 230.5C166.9 225.2 161.3 225.4 157.5 230.3C152.9 236.2 153.1 247.7 157.9 253.5C161.3 257.6 166.8 257.8 169.6 253.3C171.8 249.8 172.9 245.8 174.5 241.9Z" fill="#3E8C8C"/>
<path d="M204.6 212.9C213.5 219 219.6 226.4 226.6 232.7C235.1 222.2 246.1 224.1 252.3 229.2C259.4 235 260.2 245.9 254.2 253.1C247.8 260.9 237.8 261.2 228.3 254C231.3 258.7 238 261.8 244.1 261C251.4 260 257 256.4 259.9 249.4C262.9 241.8 261.6 234.8 255.9 229C250.4 223.3 243.5 221.9 235.9 224.4C234.7 224.8 232.7 224.9 232 224.2C226.3 218.4 220.9 212.4 215.3 206.4C214.9 206 214.7 205.3 214.1 204.2C215.9 203.9 217.4 203.4 218.9 203.4C246.1 204.1 267.4 215.2 277.9 241C278.4 242.1 279.8 242.9 281 243.6C281.7 244 282.7 243.9 283.5 244.1C295.7 247.7 296.8 249.2 296.9 261.7C296.9 272 296.9 282.2 296.9 292.5C296.9 293.8 296.8 295.2 296.7 296.7C295.3 296.8 294.2 296.9 293.1 296.9C279.7 296.9 266.3 296.9 253 297C250.6 297 248.9 296.4 248 294.1C246.3 289.5 244.7 284.8 242.8 280.2C242.3 278.9 241.3 277.3 240 276.7C216.1 265.9 205.3 246.6 203.9 221.2C203.9 218.9 204.3 216.5 204.6 212.9ZM220.3 237C215.3 237.8 212.9 240.6 213.4 244.8C213.8 248.2 216.2 250.3 219.9 250.4C216.7 249.1 214.7 247.1 214.7 243.7C214.7 240 217.3 238.4 220.3 237Z" fill="white"/>
<path d="M30.8 30.7998C46 30.7998 60.6 30.7998 75.2 30.8998C76 30.8998 76.8 31.6998 77.6 32.1998C77.9 32.3998 78.1 32.7998 78.2 33.1998C80.5 41.4998 86.9 45.8998 93.3 50.7998C110.5 63.7998 125 79.3998 135.7 98.2998C137.4 101.2 138.6 104.4 139.6 107.6C140.5 110.6 139.2 112 136.1 111.2C133 110.3 129.9 109.2 127.1 107.5C121.3 104 115.9 100.1 110.2 96.3998C108.3 95.1998 107.9 93.8998 108.4 91.6998C111.2 78.4998 102.5 65.3998 89.8 63.2998C75.6 60.9998 62.9 70.1998 61.2 84.1998C59.3 99.9998 73.7 113.2 89.9 110.1C92.5 109.6 93.8 110.3 95 112.3C99.5 119.8 104.1 127.2 108.4 134.8C109.3 136.4 109 138.8 109.2 140.8C106.9 140.7 104.5 141.1 102.5 140.3C91.4 135.7 82.1 128.4 73 120.6C61.4 110.6 51.4 99.0998 42.8 86.4998C41.2 84.1998 37.9 82.9998 35.1 81.8998C31.7 80.4998 30.6 78.5998 30.7 74.8998C31 61.7998 30.8 48.6998 30.8 35.4998C30.8 33.9998 30.8 32.6998 30.8 30.7998Z" fill="white"/>
<path d="M94.7 198.9C93 200.4 91.3 202.1 89.4 203.3C82.3 208 75 212.4 68 217.1C66.5 218.1 65.2 219.9 64.8 221.6C63.3 227 62.3 232.5 61.1 238.2C67.6 239.9 73.8 241.6 80.1 243C82.4 243.5 83.4 244.6 84 246.8C85.4 252.4 87.2 257.8 88.6 263.4C89.1 265.5 90.1 266 92 265.6C97 264.5 102 263.6 107 262.3C108.1 262 109.2 260.8 109.9 259.7C114.3 252.9 118.6 246 123.1 239.2C124.6 236.9 126.6 234.9 128.4 232.7C128.8 232.9 129.1 233 129.5 233.2C129.3 234.3 129.4 235.5 129 236.5C124.7 246.7 120.3 256.9 115.8 267.1C115.4 267.9 114.5 268.5 113.7 269.1C113.1 269.5 112.4 269.8 111.7 270C97.4 274.8 85.4 282.9 76 294.7C75.2 295.7 73.5 296.6 72.3 296.6C59.1 296.7 45.8 296.7 32.6 296.6C32.2 296.6 31.9 296.4 31.2 296.3C31.1 295.3 30.9 294.2 30.9 293.2C30.9 281.2 30.8 269.2 31 257.2C31 255.3 31.9 252.9 33.2 251.7C44.6 241.6 52.5 229.3 57.5 215C58.2 213.1 60.2 211.1 62.1 210.2C70.8 206.2 79.7 202.6 88.6 199C90.4 198.3 92.3 198.1 94.2 197.6C94.4 198.2 94.5 198.6 94.7 198.9Z" fill="white"/>
<path d="M276.6 101.4C274 99.0001 271.8 96.8001 269.3 94.5001C272.2 91.9001 275.2 89.2001 278.2 86.4001C278.1 86.2001 278 86.0001 278 85.7001C274.3 86.3001 270.6 86.9001 267 87.7001C264.4 88.3001 262.7 88.1001 261.3 85.3001C258.9 80.4001 254.8 77.1001 249.7 75.2001C247.7 74.5001 247.1 73.4001 247.3 71.3001C247.7 67.2001 247.8 63.1001 247.4 58.7001C245 62.1001 242.6 65.5001 240.3 68.8001C237.5 66.7001 234.9 64.8001 232.2 62.8001C237.1 55.6001 242.2 48.7001 246.8 41.4001C248.6 38.5001 249.3 34.9001 250.6 31.1001C265.3 31.1001 280.9 31.1001 296.9 31.1001C297 32.1001 297.1 33.2001 297.1 34.2001C297.1 49.5001 297.1 64.7001 297 80.0001C297 81.6001 296.5 83.7001 295.4 84.7001C289.1 90.5001 282.7 96.0001 276.6 101.4Z" fill="white"/>
<path d="M274.2 191.8C257.5 203.5 243.1 205.3 231 197.4C235.8 197.2 240.8 197.3 245.7 196.6C252.9 195.5 259.1 192.1 263.9 186.3C265.8 184 266.9 181.7 264.8 179.1C262.7 181.1 260.7 183.7 258.2 185.2C255.7 186.6 252.6 187.3 249.7 187.6C245.8 188 241.7 187.8 237.9 187.9C236.5 185.7 234.7 182.9 232.6 179.7C233 179.3 233.7 178.4 234.6 177.4C232.4 176.7 230.3 176 227.7 175.2C230.1 173.9 232 172.8 234 171.7C233.3 170.2 232.7 168.9 232 167.2C233 166.8 234 166.5 235.2 166.1C234.4 164.4 233.7 162.7 232.8 160.8C234.2 160.2 235.5 159.7 236.9 159.1C236.7 157.7 236.5 156.4 236.4 156.1C241.1 156.1 245.7 155.9 250.3 156.1C256.5 156.4 261.1 159.5 264.2 164.9C265.8 162.2 265.8 161.9 263.6 159C256.9 150.5 248 146.1 237.3 145C236.4 144.9 235.4 144.8 234.5 144.5C241.7 141.1 249.3 140 256.8 142.5C262.2 144.3 267.3 147.5 272.2 150.5C273.8 151.4 274.7 151.9 276.4 151C281.9 148 287.7 147.4 293.8 148.7C295.9 149.2 296.9 150.1 296.9 152.5C296.8 165.6 296.8 178.7 296.9 191.9C296.9 194.1 296.1 195 294.1 195.5C287 196.9 280.3 195.7 274.2 191.8ZM250.1 184C256.4 183.9 261.6 178.8 261.6 172.6C261.6 165.8 256.5 160.7 249.8 160.7C243.4 160.8 238.1 166.1 238.3 172.5C238.3 178.9 243.7 184 250.1 184Z" fill="white"/>
<path d="M31 190.5C31 174.9 31 158.9 31 142.9C37.2 144.8 43.2 146.9 49.3 148.4C51.2 148.9 53.7 148.4 55.5 147.5C72.9 139.1 90 139.3 106.6 149.5C108.3 150.5 109.3 152.7 110.6 154.3C108.6 154.6 106.6 155.2 104.6 155.2C103.2 155.2 101.8 154.4 100.5 153.7C87.7 147 74.7 146.8 61.5 152.3C61.2 152.4 60.9 152.7 60.5 152.9C60.4 153 60.4 153.1 60.2 153.5C63.2 157.4 65.1 161.5 64.9 166.9C64.7 172.3 63.5 176.7 59.8 180.4C63.6 184.5 75.8 186.3 85.2 185.1C84.6 180.9 91.5 180.1 90.2 174.9C81.8 181.3 75.8 182.1 70.6 177.6C65.7 173.4 64.4 166.9 67.5 161.3C70.4 156 76.4 153.6 82.3 155.2C88.6 157 92 162.7 91.5 169.7C93.2 172 95.1 173.7 95.9 175.8C97.9 181.2 94.9 185.2 88.7 186.1C85.4 186.6 85.4 186.6 85.9 188.6C87.6 188.2 89.3 187.9 90.8 187.2C92.6 186.4 94.7 185.7 95.7 184.3C98.6 180.5 102.1 178.6 106.7 178.7C108 178.7 109.3 179.5 110.6 180C109.8 181.2 109.3 182.6 108.2 183.5C101.3 188.9 93.4 191.7 84.7 192.3C73.9 193.1 63.5 191.5 54 185.8C53.1 185.3 51.6 185.1 50.5 185.4C44.2 187 37.7 188.8 31 190.5ZM78.8 159C74 159 70.1 162.7 70.1 167.4C70 172.3 73.9 176.4 78.7 176.4C83.3 176.5 87.4 172.5 87.4 167.9C87.5 162.9 83.7 159 78.8 159Z" fill="white"/>
<path d="M226.1 65C231.6 65.7 237.5 67.8 241.2 74C241.7 74.9 242.9 75.7 243.9 75.9C252.7 77.8 258.6 82.8 261.5 91.4C261.9 92.5 263.1 93.5 264.1 94C270.4 97 273.4 102.3 275.2 109.4C270.7 107.6 268 109.9 265.1 112.1C261.8 114.7 258.3 117.2 254.8 119.5C244.9 125.8 234.1 123.8 226.9 114.6C226.5 114 225.9 113.5 225.3 113.2C215.7 107.8 212 97.5 216.4 87.3C218.4 82.6 221.4 78.3 223.5 73.7C224.8 71.3 225.2 68.3 226.1 65Z" fill="white"/>
<path d="M180.3 296.7C169.3 296.7 158.5 296.7 147.5 296.7C146.5 288 145.6 279.6 144.5 271.1C144.3 269.2 143.5 267.3 142.7 265.5C135 248.4 135.5 231.9 146.5 216.2C147.6 214.7 148.6 213.2 149.9 211.3C152.7 215.1 153.3 217.2 151 220.4C142.6 232 142.2 244.8 145.9 257.7C149.3 256.8 152.4 255.1 155.3 255.3C158.2 255.5 161.1 257.5 163.9 258.8C166.3 257.7 169.2 255.6 172.3 255.4C175.2 255.1 178.3 256.8 181.8 257.7C185.6 245.1 185 232.3 176.9 220.7C174.7 217.6 175 215.4 177.2 212.2C178.7 213.7 180.2 214.9 181.3 216.4C191.4 230.5 192.9 245.9 186.6 261.6C183.8 268.5 182.7 275.4 181.8 282.6C181.3 287.2 180.8 291.9 180.3 296.7Z" fill="white"/>
<path d="M178.1 31.0999C178.1 38.1999 178.4 45.0999 178 51.8999C177.1 66.6999 179.5 80.9999 182.9 95.1999C185.6 106.5 187.8 117.9 190.2 129.2C190.7 131.5 190.9 133.7 188.2 134.3C185.2 135 184.4 132.9 183.9 130.4C181.6 119.3 178.7 108.3 176.9 97.0999C176.1 91.8999 175.8 86.7999 173.4 81.9999C172.9 81.0999 171.9 80.3999 171.1 79.6999C170.6 79.2999 169.9 79.2999 169.3 79.0999C159.3 75.8999 151.8 81.2999 151.1 91.7999C150.7 97.2999 149.9 102.9 148.9 108.3C147.5 115.7 145.8 122.9 144.3 130.3C143.8 132.8 142.9 134.9 140 134.2C137.2 133.6 137.4 131.4 137.9 129.1C141.9 110.8 145.7 92.4999 149.6 74.1999C149.9 72.5999 150.1 70.9999 150.1 69.3999C150.1 56.6999 150.1 43.8999 150.1 30.8999C159.5 31.0999 168.5 31.0999 178.1 31.0999Z" fill="white"/>
<path d="M89.2999 261.2C87.7999 255.7 86.2999 250.7 84.9999 245.7C84.4999 243.6 83.4999 242.6 81.3999 242.1C76.6999 241.1 71.9999 239.7 66.3999 238.3C67.5999 234.7 68.5999 231.2 69.9999 227.8C76.6999 212.2 88.3999 209.2 102 219.2C108.3 223.8 112.5 229.8 113.9 237.5C114.7 242.1 113.9 246.3 111 249.8C105.4 256.6 97.6999 259.2 89.2999 261.2Z" fill="white"/>
<path d="M84.8998 108.3C72.8998 108.2 63.2998 98.5 63.2998 86.5C63.2998 74.7 73.2998 65.1 85.3998 65.2C97.4998 65.4 106.9 75.1 106.8 87.1C106.6 98.8 96.6998 108.4 84.8998 108.3ZM68.4998 86.8C68.5998 96 76.0998 103.6 85.0998 103.6C94.1998 103.5 101.8 95.9 101.8 86.8C101.8 77.3 94.2998 69.9 84.8998 69.9C75.6998 70 68.3998 77.5 68.4998 86.8Z" fill="white"/>
<path d="M152.5 92.3999C152.5 86.0999 157.5 80.9999 163.9 80.9999C170.3 80.8999 175.7 86.1999 175.6 92.4999C175.6 98.6999 170.4 103.9 164.1 104C157.6 104.1 152.5 98.8999 152.5 92.3999Z" fill="white"/>
<path d="M248.8 126.1C241.8 132.2 234.9 138.5 227.8 144.5C225.5 146.4 222.9 146.3 220.8 143.9C218.8 141.5 219.1 139 221.3 136.9C225.4 133.1 229.7 129.4 233.9 125.8C234.6 125.2 235.9 125 236.9 125C240.8 125.2 244.6 125.6 248.8 126.1Z" fill="white"/>
<path d="M211.2 93.1997C212.2 97.4997 213.3 101.2 214 105.1C214.2 105.9 213.8 107.1 213.3 107.8C210.3 112.4 207.2 116.9 204 121.4C202.2 123.9 199.7 124.7 196.8 122.8C194.3 121.2 193.8 118.4 195.7 115.6C200.8 108.1 206 100.8 211.2 93.1997Z" fill="white"/>
<path d="M174.5 241.9C172.9 245.8 171.9 249.8 169.7 253.2C166.8 257.7 161.4 257.5 158 253.4C153.2 247.7 153 236.2 157.6 230.2C161.4 225.3 167 225.2 170.3 230.4C172.2 233.7 173 237.7 174.5 241.9ZM170 241.4C169 238.6 168.4 235.6 167 233.1C165.2 229.8 162.9 229.9 160.7 232.9C157.7 237.1 157.6 245.8 160.5 250C162.6 253 165.6 253.1 167.3 249.8C168.5 247.3 169 244.4 170 241.4Z" fill="white"/>
<path d="M220.3 237C217.3 238.3 214.7 240 214.7 243.7C214.7 247.1 216.7 249.1 219.9 250.4C216.2 250.4 213.8 248.2 213.4 244.8C212.9 240.7 215.3 237.8 220.3 237Z" fill="white"/>
<path d="M250.1 184C243.7 184.1 238.4 178.9 238.2 172.5C238.1 166.1 243.3 160.8 249.7 160.7C256.3 160.6 261.5 165.8 261.5 172.6C261.5 178.8 256.4 183.9 250.1 184Z" fill="#3E8C8C"/>
<path d="M78.8 159C83.7 159 87.5 162.9 87.4 167.9C87.3 172.5 83.3 176.5 78.7 176.4C73.9 176.3 70 172.3 70.1 167.4C70.1 162.7 74 159 78.8 159Z" fill="#3E8C8C"/>
<path d="M68.5 86.8C68.4 77.5 75.7 70 85 70C94.4 69.9 101.8 77.4 101.9 86.9C101.9 96 94.3 103.6 85.2 103.7C76.1 103.6 68.5 96 68.5 86.8Z" fill="#3E8C8C"/>
<path d="M170 241.4C169.1 244.4 168.6 247.3 167.3 249.8C165.6 253.1 162.6 253.1 160.5 250C157.6 245.8 157.7 237.1 160.7 232.9C162.9 229.8 165.2 229.7 167 233.1C168.4 235.6 169 238.6 170 241.4Z" fill="#3E8C8C"/>
</g>
<defs>
<clipPath id="clip0_25_3631">
<rect width="328" height="328" rx="20" fill="white"/>
</clipPath>
</defs>
</svg>
